<svg width="132" height="161" viewBox="0 0 132 161" fill="none" xmlns="http://www.w3.org/2000/svg">
<path d="M55.3728 76.9853C55.0966 76.2091 55.0703 75.6057 54.7701 75.203C46.6478 57.491 37.355 40.7248 25.0481 26.165C19.47 19.5757 13.1707 14.048 6.64781 8.95071C4.97326 7.59731 3.24829 6.01399 1.64827 4.51709C1.09813 3.94148 0.497587 3.13595 0.221449 2.35976C0.120646 1.89992 0.243443 1.00958 0.591982 0.665499C0.940524 0.321422 1.71427 0.466531 2.08907 0.725795C18.4073 12.7938 33.0092 27.1856 43.8034 45.9656C49.3133 55.6287 54.6238 65.3489 59.1123 75.6709C59.5638 76.7634 60.3155 78.2587 61.1396 78.6337C71.8535 83.5091 80.3797 91.9426 87.7857 101.552C99.2946 116.34 110.181 131.673 121.342 146.805C122.067 147.697 122.843 148.819 124.167 149.539C122.791 136.494 121.216 123.506 119.79 110.231C121.76 110.034 122.611 111.012 123.237 112.421C123.915 114.06 124.717 115.785 125.12 117.624C127.138 127.798 129.156 137.971 130.975 148.202C131.354 150.415 131.334 152.742 131.189 154.982C130.775 159.377 127.984 161.153 124.438 159.48C117.545 156.077 110.851 152.617 104.106 148.927C102.083 147.918 101.406 146.279 101.976 144.527C102.596 143.006 104.142 142.319 106.239 143.185C109.86 144.715 113.332 146.531 117.328 148.32C116.927 147.457 116.826 146.997 116.526 146.595C104.942 131.95 93.4334 117.162 81.5758 102.718C78.0734 98.3446 73.6744 94.7165 69.6743 90.9743C68.0743 89.4774 66.0512 88.4681 63.8024 86.9125C64.0302 88.4355 64.2822 89.5851 64.4838 90.5048C66.4956 97.7481 67.8344 105.306 67.926 112.977C67.941 119.814 66.8074 126.247 63.552 132.188C62.3836 134.11 61.1406 136.176 59.5974 137.84C52.8524 145.268 43.3964 145.163 36.319 137.537C27.3918 128.241 21.0605 108.062 29.906 91.3586C34.8252 81.8876 42.425 77.3917 51.9796 76.9788C53.0274 76.9234 54.2001 76.9543 55.3728 76.9853ZM59.9793 129.911C62.6866 124.372 63.8224 118.916 63.735 113.199C63.8649 104.121 61.9497 95.3838 59.3615 86.9615C58.8333 85.0357 57.7089 84.2579 56.111 83.7378C47.6481 81.3948 37.9288 86.3751 33.7811 95.0144C28.1932 106.754 30.5769 124.397 39.1797 133.664C44.9069 139.967 51.9671 139.779 57.4671 133.44C58.4623 132.178 59.4071 130.686 59.9793 129.911Z" fill="white"/>
</svg>
