<svg width="229" height="216" viewBox="0 0 229 216" fill="none" xmlns="http://www.w3.org/2000/svg">
<path d="M8.624 129L0 115.433L1.372 114.095L8.624 125.471L16.562 113L24.5 125.471L32.438 113L40.376 125.471L47.628 114.095L49 115.433L40.376 129L32.438 116.529L24.5 129L16.562 116.529L8.624 129Z" fill="#5588CC"/>
<path d="M194.506 44.419C192.019 44.419 190 42.3092 190 39.7095C190 37.1099 192.019 35 194.506 35C196.993 35 199.012 37.1099 199.012 39.7095C199.012 42.3092 196.993 44.419 194.506 44.419Z" fill="#FFBE4E" stroke="#FFBE4E" stroke-width="0.0901172"/>
<path d="M48 46.7232C43.584 46.7232 40 42.9772 40 38.3616C40 33.746 43.584 30 48 30C52.416 30 56 33.746 56 38.3616C56 42.9772 52.416 46.7232 48 46.7232ZM48 32.776C45.056 32.776 42.656 35.2845 42.656 38.3616C42.656 41.4386 45.056 43.9471 48 43.9471C50.944 43.9471 53.344 41.4386 53.344 38.3616C53.344 35.2845 50.944 32.776 48 32.776Z" fill="#00C040"/>
</svg>
