<svg width="310" height="107" viewBox="0 0 310 107" fill="none" xmlns="http://www.w3.org/2000/svg">
<path d="M192.168 105L189 100.76L189.504 100.342L192.168 103.897L195.084 100L198 103.897L200.916 100L203.832 103.897L206.496 100.342L207 100.76L203.832 105L200.916 101.103L198 105L195.084 101.103L192.168 105Z" fill="#FFBE4E" stroke="#FFBE4E" stroke-width="0.749882"/>
<path d="M222 94C220.344 94 219 92.656 219 91C219 89.344 220.344 88 222 88C223.656 88 225 89.344 225 91C225 92.656 223.656 94 222 94ZM222 88.996C220.896 88.996 219.996 89.896 219.996 91C219.996 92.104 220.896 93.004 222 93.004C223.104 93.004 224.004 92.104 224.004 91C224.004 89.896 223.104 88.996 222 88.996Z" fill="#C8A1FD" stroke="#C8A1FD" stroke-width="0.12"/>
<path fill-rule="evenodd" clip-rule="evenodd" d="M309 97.4398C299.406 96.3661 292 89.5096 292 81.2199C292 72.9303 299.406 66.0737 309 65.0001V70.5094C303.03 71.5302 298.518 75.9488 298.518 81.2199C298.518 86.491 303.03 90.9097 309 91.9305V97.4398Z" fill="#EFE8FF"/>
<path d="M309 97.4398H309.82V98.3567L308.909 98.2547L309 97.4398ZM309 65.0001L308.909 64.1851L309.82 64.0832V65.0001H309ZM309 70.5094H309.82V71.2011L309.138 71.3177L309 70.5094ZM309 91.9305L309.138 91.1222L309.82 91.2388V91.9305H309ZM292.82 81.2199C292.82 88.9751 299.785 95.5834 309.091 96.6249L308.909 98.2547C299.027 97.1489 291.18 90.0441 291.18 81.2199H292.82ZM309.091 65.815C299.785 66.8565 292.82 73.4648 292.82 81.2199H291.18C291.18 72.3958 299.027 65.291 308.909 64.1851L309.091 65.815ZM309.82 65.0001V70.5094H308.18V65.0001H309.82ZM297.698 81.2199C297.698 75.4402 302.616 70.769 308.862 69.7011L309.138 71.3177C303.444 72.2913 299.338 76.4575 299.338 81.2199H297.698ZM308.862 92.7387C302.616 91.6709 297.698 86.9997 297.698 81.2199H299.338C299.338 85.9824 303.444 90.1485 309.138 91.1222L308.862 92.7387ZM309.82 91.9305V97.4398H308.18V91.9305H309.82Z" fill="#EFE8FF"/>
</svg>
