<svg width="310" height="107" viewBox="0 0 310 107" fill="none" xmlns="http://www.w3.org/2000/svg">
<path d="M7.97977 68C7.78982 68 7.59986 67.9137 7.47989 67.7603L2.13113 61.0383C1.99117 60.8657 1.96117 60.6452 2.05115 60.4438C2.14113 60.2424 2.32109 60.1082 2.55104 60.0794L11.299 59.0055C11.5189 58.9767 11.7389 59.063 11.8689 59.2356C12.0088 59.4082 12.0388 59.6287 11.9488 59.8301L8.54964 67.6356C8.45966 67.837 8.2797 67.9712 8.04976 68H7.97977ZM3.77075 61.1342L7.80981 66.2164L10.3792 60.3192L3.77075 61.1342Z" fill="#00D280" stroke="#00D280" stroke-width="0.299927"/>
<path d="M292.5 102C289.464 102 287 99.536 287 96.5C287 93.464 289.464 91 292.5 91C295.536 91 298 93.464 298 96.5C298 99.536 295.536 102 292.5 102ZM292.5 92.826C290.476 92.826 288.826 94.476 288.826 96.5C288.826 98.524 290.476 100.174 292.5 100.174C294.524 100.174 296.174 98.524 296.174 96.5C296.174 94.476 294.524 92.826 292.5 92.826Z" fill="#9143FD" stroke="#9143FD" stroke-width="0.26"/>
</svg>
