<svg width="25" height="25" viewBox="0 0 25 25" fill="none" xmlns="http://www.w3.org/2000/svg">
<mask id="mask0_1476_319" style="mask-type:alpha" maskUnits="userSpaceOnUse" x="0" y="0" width="25" height="25">
<rect x="0.570312" y="0.5" width="24" height="24" fill="#D9D9D9"/>
</mask>
<g mask="url(#mask0_1476_319)">
<path d="M11.5703 17.5H13.5703V16.5H14.5703C14.8536 16.5 15.0913 16.404 15.2833 16.212C15.4746 16.0207 15.5703 15.7833 15.5703 15.5V12.5C15.5703 12.2167 15.4746 11.979 15.2833 11.787C15.0913 11.5957 14.8536 11.5 14.5703 11.5H11.5703V10.5H15.5703V8.5H13.5703V7.5H11.5703V8.5H10.5703C10.287 8.5 10.0496 8.59567 9.85831 8.787C9.66631 8.979 9.57031 9.21667 9.57031 9.5V12.5C9.57031 12.7833 9.66631 13.0207 9.85831 13.212C10.0496 13.404 10.287 13.5 10.5703 13.5H13.5703V14.5H9.57031V16.5H11.5703V17.5ZM4.57031 20.5C4.02031 20.5 3.54965 20.3043 3.15831 19.913C2.76631 19.521 2.57031 19.05 2.57031 18.5V6.5C2.57031 5.95 2.76631 5.47933 3.15831 5.088C3.54965 4.696 4.02031 4.5 4.57031 4.5H20.5703C21.1203 4.5 21.5913 4.696 21.9833 5.088C22.3746 5.47933 22.5703 5.95 22.5703 6.5V18.5C22.5703 19.05 22.3746 19.521 21.9833 19.913C21.5913 20.3043 21.1203 20.5 20.5703 20.5H4.57031Z" fill="white"/>
</g>
</svg>
